<?xml version="1.0" encoding="UTF-8" standalone="no"?>
<!DOCTYPE svg PUBLIC "-//W3C//DTD SVG 1.1//EN" "http://www.w3.org/Graphics/SVG/1.1/DTD/svg11.dtd">
<svg xmlns="http://www.w3.org/2000/svg" version="1.1" viewBox="0.00 0.00 2645.00 771.00">
<g stroke-width="2.00" fill="none" stroke-linecap="butt">
<path stroke="#44993a" vector-effect="non-scaling-stroke" d="
  M 102.80 140.27
  L 72.77 140.31"
/>
<path stroke="#44993a" vector-effect="non-scaling-stroke" d="
  M 102.80 496.67
  L 72.88 496.95"
/>
<path stroke="#44993a" vector-effect="non-scaling-stroke" d="
  M 541.03 133.15
  L 511.18 133.35"
/>
<path stroke="#44993a" vector-effect="non-scaling-stroke" d="
  M 541.07 512.82
  L 511.08 512.77"
/>
<path stroke="#e54949" vector-effect="non-scaling-stroke" d="
  M 248.95 229.24
  L 219.01 229.29"
/>
<path stroke="#e54949" vector-effect="non-scaling-stroke" d="
  M 249.01 445.33
  L 218.94 445.55"
/>
<path stroke="#e54949" vector-effect="non-scaling-stroke" d="
  M 394.96 278.64
  L 365.21 278.69"
/>
<path stroke="#e54949" vector-effect="non-scaling-stroke" d="
  M 394.99 582.55
  C 394.33 582.49 394.07 582.20 393.40 582.18
  Q 378.66 581.72 364.89 582.24"
/>
</g>
<path fill="#35812c" d="
  M 102.80 140.27
  L 72.77 140.31
  Q 72.73 114.15 72.73 88.25
  C 72.73 82.72 74.94 77.68 79.52 74.50
  C 86.87 69.40 98.00 72.72 101.48 80.85
  Q 102.88 84.12 102.83 91.34
  Q 102.65 115.75 102.80 140.27
  Z"
/>
<path fill="#35812c" d="
  M 541.03 133.15
  L 511.18 133.35
  Q 511.32 112.06 511.22 91.04
  Q 511.19 83.87 512.61 80.68
  C 519.04 66.24 540.23 71.00 541.16 86.82
  Q 541.71 96.21 541.03 133.15
  Z"
/>
<path fill="#52b047" d="
  M 541.03 133.15
  C 560.28 134.21 574.93 144.43 579.64 162.74
  Q 581.01 168.09 581.01 178.38
  Q 580.98 323.25 581.01 468.11
  Q 581.01 477.97 579.66 483.27
  C 575.03 501.35 560.43 512.25 541.07 512.82
  L 511.08 512.77
  C 488.61 512.45 471.51 495.95 471.48 473.44
  Q 471.22 323.72 471.27 174.00
  C 471.28 150.97 487.82 133.75 511.18 133.35
  L 541.03 133.15
  Z"
/>
<path fill="#52b047" d="
  M 72.77 140.31
  L 102.80 140.27
  C 121.29 140.77 137.11 152.00 141.41 169.90
  Q 142.70 175.29 142.71 189.81
  Q 142.80 316.90 142.72 443.99
  Q 142.71 460.54 142.14 463.97
  C 138.96 483.16 122.54 496.56 102.80 496.67
  L 72.88 496.95
  C 53.68 495.64 39.17 485.74 34.32 467.28
  Q 32.99 462.21 32.99 453.11
  Q 33.01 316.05 33.00 179.00
  C 33.00 156.84 51.01 140.98 72.77 140.31
  Z"
/>
<path fill="#d33535" d="
  M 248.95 229.24
  L 219.01 229.29
  Q 218.99 212.86 219.00 197.25
  C 219.01 190.29 226.04 183.46 233.26 183.26
  C 242.52 183.01 248.92 190.24 249.00 199.50
  Q 249.08 207.25 248.95 229.24
  Z"
/>
<path fill="#35812c" d="
  M 2346.69 250.06
  C 2333.93 248.94 2321.57 255.38 2320.26 269.01
  C 2319.64 275.53 2319.41 288.71 2320.40 294.68
  C 2322.77 308.89 2335.53 315.98 2347.74 321.52
  Q 2354.37 324.53 2369.75 332.49
  C 2379.69 337.63 2389.29 343.32 2396.05 351.80
  Q 2406.26 364.60 2407.77 380.74
  Q 2409.23 396.46 2408.36 416.80
  C 2406.93 450.08 2391.29 472.75 2356.02 477.05
  C 2326.69 480.63 2295.93 471.36 2284.74 441.54
  C 2280.32 429.78 2280.33 416.56 2280.53 401.80
  Q 2280.54 401.32 2281.01 401.32
  L 2318.51 400.95
  Q 2319.91 400.94 2319.82 402.33
  C 2318.94 415.90 2318.98 431.64 2333.57 437.44
  Q 2339.51 439.81 2346.61 439.29
  C 2373.00 437.38 2369.74 412.26 2369.20 393.76
  Q 2368.97 386.09 2367.57 382.39
  C 2364.55 374.43 2356.91 368.60 2349.63 364.91
  C 2318.23 349.02 2284.44 337.17 2281.07 295.69
  C 2279.71 278.86 2279.49 256.53 2288.20 240.30
  C 2302.58 213.49 2336.14 207.98 2363.78 214.08
  Q 2393.02 220.54 2403.20 248.55
  C 2407.36 259.98 2407.43 274.01 2406.85 287.92
  Q 2406.83 288.50 2406.25 288.50
  L 2368.25 289.00
  A 0.52 0.52 0.0 0 1 2367.72 288.47
  C 2368.06 271.02 2369.01 252.02 2346.69 250.06
  Z"
/>
<path fill="#35812c" d="
  M 1719.30 364.97
  L 1697.99 365.01
  Q 1697.50 365.02 1697.50 365.51
  L 1697.50 474.50
  A 0.50 0.50 0.0 0 1 1697.00 475.00
  L 1659.25 475.00
  A 0.50 0.50 0.0 0 1 1658.75 474.50
  L 1658.75 214.75
  Q 1658.75 214.21 1659.29 214.21
  Q 1689.81 214.28 1719.97 214.29
  C 1751.37 214.31 1780.06 225.98 1786.48 259.65
  C 1788.95 272.61 1787.79 290.22 1787.68 304.75
  C 1787.52 327.83 1778.17 346.73 1757.62 357.22
  A 1.26 1.25 -22.7 0 0 1757.00 358.72
  L 1795.00 474.27
  A 0.56 0.55 80.8 0 1 1794.48 475.00
  L 1753.03 475.00
  A 0.58 0.58 0.0 0 1 1752.47 474.58
  L 1719.68 365.25
  Q 1719.59 364.97 1719.30 364.97
  Z
  M 1697.36 252.25
  L 1697.62 326.93
  A 0.49 0.49 0.0 0 0 1698.11 327.42
  L 1725.57 327.32
  A 22.41 22.39 -0.2 0 0 1747.90 304.85
  L 1747.80 273.97
  A 22.41 22.39 -0.2 0 0 1725.31 251.66
  L 1697.85 251.76
  A 0.49 0.49 0.0 0 0 1697.36 252.25
  Z"
/>
<path fill="#35812c" d="
  M 772.19 252.00
  L 728.56 252.00
  A 0.56 0.56 0.0 0 1 728.00 251.44
  L 728.00 214.81
  A 0.56 0.56 0.0 0 1 728.56 214.25
  L 856.19 214.25
  A 0.56 0.56 0.0 0 1 856.75 214.81
  L 856.75 251.44
  A 0.56 0.56 0.0 0 1 856.19 252.00
  L 812.56 252.00
  A 0.56 0.56 0.0 0 0 812.00 252.56
  L 812.00 474.44
  A 0.56 0.56 0.0 0 1 811.44 475.00
  L 773.31 475.00
  A 0.56 0.56 0.0 0 1 772.75 474.44
  L 772.75 252.56
  A 0.56 0.56 0.0 0 0 772.19 252.00
  Z"
/>
<path fill="#35812c" d="
  M 912.41 328.00
  L 955.09 328.00
  A 0.41 0.41 0.0 0 0 955.50 327.59
  L 955.49 214.66
  A 0.41 0.41 0.0 0 1 955.90 214.25
  L 994.34 214.25
  A 0.41 0.41 0.0 0 1 994.75 214.66
  L 994.75 474.59
  A 0.41 0.41 0.0 0 1 994.34 475.00
  L 955.91 475.00
  A 0.41 0.41 0.0 0 1 955.50 474.59
  L 955.50 365.67
  A 0.41 0.41 0.0 0 0 955.09 365.26
  L 912.41 365.23
  A 0.41 0.41 0.0 0 0 912.00 365.64
  L 912.00 474.59
  A 0.41 0.41 0.0 0 1 911.59 475.00
  L 873.16 475.00
  A 0.41 0.41 0.0 0 1 872.75 474.59
  L 872.75 214.66
  A 0.41 0.41 0.0 0 1 873.16 214.25
  L 911.59 214.25
  A 0.41 0.41 0.0 0 1 912.00 214.66
  L 912.00 327.59
  A 0.41 0.41 0.0 0 0 912.41 328.00
  Z"
/>
<path fill="#35812c" d="
  M 1067.70 364.84
  L 1067.98 436.66
  A 0.34 0.34 0.0 0 0 1068.32 437.00
  L 1141.91 437.00
  A 0.34 0.34 0.0 0 1 1142.25 437.34
  L 1142.25 474.66
  A 0.34 0.34 0.0 0 1 1141.91 475.00
  L 1028.84 475.00
  A 0.34 0.34 0.0 0 1 1028.50 474.66
  L 1028.50 214.90
  A 0.34 0.34 0.0 0 1 1028.84 214.56
  L 1141.91 214.27
  A 0.34 0.34 0.0 0 1 1142.25 214.61
  L 1142.25 251.91
  A 0.34 0.34 0.0 0 1 1141.91 252.25
  L 1068.12 252.25
  A 0.34 0.34 0.0 0 0 1067.78 252.59
  L 1067.93 326.16
  A 0.34 0.34 0.0 0 0 1068.27 326.50
  L 1133.16 326.50
  A 0.34 0.34 0.0 0 1 1133.50 326.84
  L 1133.50 364.16
  A 0.34 0.34 0.0 0 1 1133.16 364.50
  L 1068.04 364.50
  A 0.34 0.34 0.0 0 0 1067.70 364.84
  Z"
/>
<path fill="#35812c" d="
  M 1206.50 367.26
  L 1206.50 474.49
  A 0.51 0.51 0.0 0 1 1205.99 475.00
  L 1167.51 475.00
  A 0.51 0.51 0.0 0 1 1167.00 474.49
  L 1167.00 215.08
  A 0.51 0.51 0.0 0 1 1167.51 214.57
  L 1280.74 214.28
  A 0.51 0.51 0.0 0 1 1281.25 214.79
  L 1281.25 251.49
  A 0.51 0.51 0.0 0 1 1280.74 252.00
  L 1207.01 252.00
  A 0.51 0.51 0.0 0 0 1206.50 252.51
  L 1206.50 328.49
  A 0.51 0.51 0.0 0 0 1207.01 329.00
  L 1271.74 329.00
  A 0.51 0.51 0.0 0 1 1272.25 329.51
  L 1272.25 366.24
  A 0.51 0.51 0.0 0 1 1271.74 366.75
  L 1207.01 366.75
  A 0.51 0.51 0.0 0 0 1206.50 367.26
  Z"
/>
<rect fill="#35812c" x="1300.25" y="214.26" width="39.50" height="260.74" rx="0.57"/>
<path fill="#35812c" d="
  M 1411.00 374.51
  L 1411.00 474.50
  A 0.50 0.50 0.0 0 1 1410.50 475.00
  L 1372.25 475.00
  A 0.50 0.50 0.0 0 1 1371.75 474.50
  L 1371.75 214.74
  Q 1371.75 214.37 1372.11 214.37
  Q 1405.37 214.63 1438.49 214.50
  C 1472.49 214.36 1498.63 233.00 1498.91 269.32
  Q 1499.09 293.53 1498.97 317.75
  C 1498.80 351.71 1476.77 372.67 1443.75 373.76
  Q 1432.53 374.12 1411.54 373.98
  Q 1411.00 373.97 1411.00 374.51
  Z
  M 1411.00 252.58
  L 1411.00 335.92
  A 0.67 0.67 0.0 0 0 1411.67 336.59
  L 1439.43 336.59
  A 22.17 19.81 90.0 0 0 1459.24 314.42
  L 1459.24 274.08
  A 22.17 19.81 -90.0 0 0 1439.43 251.91
  L 1411.67 251.91
  A 0.67 0.67 0.0 0 0 1411.00 252.58
  Z"
/>
<path fill="#35812c" d="
  M 1598.00 252.42
  L 1598.00 474.58
  A 0.42 0.42 0.0 0 1 1597.58 475.00
  L 1559.17 475.00
  A 0.42 0.42 0.0 0 1 1558.75 474.58
  L 1558.75 252.42
  A 0.42 0.42 0.0 0 0 1558.33 252.00
  L 1514.42 252.00
  A 0.42 0.42 0.0 0 1 1514.00 251.58
  L 1514.00 214.67
  A 0.42 0.42 0.0 0 1 1514.42 214.25
  L 1642.33 214.25
  A 0.42 0.42 0.0 0 1 1642.75 214.67
  L 1642.75 251.58
  A 0.42 0.42 0.0 0 1 1642.33 252.00
  L 1598.42 252.00
  A 0.42 0.42 0.0 0 0 1598.00 252.42
  Z"
/>
<path fill="#35812c" d="
  M 1915.15 426.25
  L 1861.91 426.25
  A 0.49 0.49 0.0 0 0 1861.43 426.65
  L 1852.20 474.60
  A 0.49 0.49 0.0 0 1 1851.72 475.00
  L 1812.31 475.00
  A 0.49 0.49 0.0 0 1 1811.83 474.40
  L 1872.71 214.85
  A 0.49 0.49 0.0 0 1 1873.19 214.47
  L 1903.74 214.49
  A 0.49 0.49 0.0 0 1 1904.22 214.87
  L 1965.32 474.40
  A 0.49 0.49 0.0 0 1 1964.84 475.00
  L 1925.35 475.00
  A 0.49 0.49 0.0 0 1 1924.87 474.60
  L 1915.63 426.65
  A 0.49 0.49 0.0 0 0 1915.15 426.25
  Z
  M 1888.22 287.94
  L 1868.71 388.79
  A 0.60 0.59 5.5 0 0 1869.30 389.50
  L 1907.68 389.50
  A 0.58 0.58 0.0 0 0 1908.25 388.81
  L 1888.65 287.94
  A 0.22 0.22 0.0 0 0 1888.22 287.94
  Z"
/>
<path fill="#35812c" d="
  M 2111.03 416.00
  C 2111.03 451.28 2092.83 474.46 2055.93 474.77
  Q 2021.34 475.05 1986.76 475.01
  A 0.51 0.51 0.0 0 1 1986.25 474.50
  L 1986.25 214.76
  A 0.34 0.33 -89.2 0 1 1986.59 214.42
  Q 2020.77 214.55 2055.00 214.51
  C 2089.35 214.46 2110.63 235.38 2110.75 269.81
  Q 2111.03 342.91 2111.03 416.00
  Z
  M 2071.32 411.47
  C 2071.66 366.14 2071.95 320.67 2071.23 275.33
  C 2070.97 258.68 2065.96 251.92 2048.60 251.97
  Q 2037.46 252.01 2026.25 252.00
  Q 2025.75 252.00 2025.75 252.50
  L 2025.75 437.00
  Q 2025.75 437.50 2026.25 437.50
  Q 2037.05 437.50 2047.89 437.52
  C 2067.17 437.58 2071.19 429.92 2071.32 411.47
  Z"
/>
<path fill="#35812c" d="
  M 2184.40 437.00
  L 2258.10 437.00
  A 0.40 0.40 0.0 0 1 2258.50 437.40
  L 2258.50 474.60
  A 0.40 0.40 0.0 0 1 2258.10 475.00
  L 2144.90 475.00
  A 0.40 0.40 0.0 0 1 2144.50 474.60
  L 2144.50 214.96
  A 0.40 0.40 0.0 0 1 2144.90 214.56
  L 2258.10 214.28
  A 0.40 0.40 0.0 0 1 2258.50 214.68
  L 2258.50 251.85
  A 0.40 0.40 0.0 0 1 2258.10 252.25
  L 2184.40 252.25
  A 0.40 0.40 0.0 0 0 2184.00 252.65
  L 2184.00 326.10
  A 0.40 0.40 0.0 0 0 2184.40 326.50
  L 2249.10 326.50
  A 0.40 0.40 0.0 0 1 2249.50 326.90
  L 2249.50 364.10
  A 0.40 0.40 0.0 0 1 2249.10 364.50
  L 2184.40 364.50
  A 0.40 0.40 0.0 0 0 2184.00 364.90
  L 2184.00 436.60
  A 0.40 0.40 0.0 0 0 2184.40 437.00
  Z"
/>
<path fill="#f75c5c" d="
  M 219.01 229.29
  L 248.95 229.24
  C 267.14 229.53 282.99 240.79 287.49 258.51
  Q 288.72 263.35 288.73 273.72
  Q 288.77 335.75 288.75 397.79
  Q 288.74 411.43 287.20 417.05
  C 282.54 434.09 266.93 445.25 249.01 445.33
  L 218.94 445.55
  C 200.56 444.74 184.84 434.19 180.39 416.08
  Q 179.01 410.48 179.01 396.19
  Q 179.00 334.59 179.18 273.00
  Q 179.19 269.59 179.33 266.18
  C 180.20 244.81 198.18 229.28 219.01 229.29
  Z"
/>
<path fill="#d33535" d="
  M 394.96 278.64
  L 365.21 278.69
  Q 364.83 267.49 365.01 256.76
  C 365.36 235.61 394.96 235.86 395.00 256.25
  Q 395.02 267.22 394.96 278.64
  Z"
/>
<path fill="#f75c5c" d="
  M 365.21 278.69
  L 394.96 278.64
  C 414.55 279.56 429.38 290.42 433.68 308.85
  Q 435.01 314.54 435.01 328.75
  Q 435.00 434.75 435.03 540.75
  C 435.03 563.47 419.94 580.68 396.74 582.00
  Q 395.60 582.07 394.99 582.55
  C 394.33 582.49 394.07 582.20 393.40 582.18
  Q 378.66 581.72 364.89 582.24
  C 360.70 581.78 356.26 581.49 352.50 580.17
  C 332.81 573.25 325.23 558.27 325.23 538.35
  Q 325.27 428.05 325.24 317.75
  C 325.24 295.45 343.12 279.02 365.21 278.69
  Z"
/>
<path fill="#d33535" d="
  M 249.01 445.33
  Q 249.02 458.27 248.98 471.29
  Q 248.95 479.16 247.55 482.37
  C 242.12 494.76 224.97 494.05 220.10 481.72
  Q 218.90 478.69 218.95 473.61
  Q 219.10 459.79 218.94 445.55
  L 249.01 445.33
  Z"
/>
<path fill="#35812c" d="
  M 102.80 496.67
  Q 102.69 521.10 102.79 545.37
  Q 102.82 552.34 101.89 555.04
  C 96.64 570.34 73.38 566.94 72.86 550.81
  Q 72.43 537.88 72.88 496.95
  L 102.80 496.67
  Z"
/>
<path fill="#35812c" d="
  M 541.07 512.82
  Q 541.43 535.25 541.16 557.39
  C 541.05 566.77 535.69 574.21 525.75 573.88
  C 515.17 573.53 511.18 565.75 511.24 556.28
  Q 511.37 534.53 511.08 512.77
  L 541.07 512.82
  Z"
/>
<path fill="#d33535" d="
  M 394.99 582.55
  Q 395.02 592.10 394.99 601.65
  Q 394.97 608.19 393.69 611.13
  C 387.35 625.69 365.16 620.95 365.08 605.18
  Q 365.02 593.75 364.89 582.24
  Q 378.66 581.72 393.40 582.18
  C 394.07 582.20 394.33 582.49 394.99 582.55
  Z"
/>
</svg>
